<?xml version="1.0" standalone="no"?>
<!DOCTYPE svg PUBLIC "-//W3C//DTD SVG 20010904//EN"
 "http://www.w3.org/TR/2001/REC-SVG-20010904/DTD/svg10.dtd">
<svg version="1.0" xmlns="http://www.w3.org/2000/svg"
 width="1536.000000pt" height="1024.000000pt" viewBox="0 0 1536.000000 1024.000000"
 preserveAspectRatio="xMidYMid meet">

<g transform="translate(0.000000,1024.000000) scale(0.100000,-0.100000)"
fill="#000000" stroke="none">
<path d="M5609 7083 c-140 -71 -155 -281 -27 -373 50 -36 88 -44 366 -76 125
-14 227 -27 228 -28 1 0 20 -73 43 -161 22 -88 66 -250 97 -360 30 -110 111
-407 180 -660 69 -253 137 -497 151 -542 l26 -83 -63 -102 c-111 -181 -177
-302 -189 -343 -16 -57 -14 -143 5 -205 36 -121 108 -189 243 -230 l54 -16 13
-64 c19 -93 58 -164 129 -236 216 -220 601 -177 759 84 36 61 66 147 66 194
l0 28 198 0 197 0 13 -66 c31 -166 146 -299 306 -354 183 -63 369 -19 507 119
71 72 102 128 127 232 15 61 22 72 60 100 60 44 86 98 86 179 0 154 -99 230
-299 230 -69 0 -101 5 -131 19 -110 53 -268 53 -378 0 -37 -18 -69 -19 -490
-19 -375 1 -454 3 -470 15 -10 8 -53 22 -94 31 -99 22 -192 14 -302 -25 -47
-17 -97 -31 -112 -31 l-27 0 52 85 c29 46 66 108 82 137 l30 53 1020 5 c1009
5 1021 5 1082 26 71 25 143 65 164 91 13 17 13 17 -7 0 -12 -10 -28 -15 -38
-11 -11 4 -16 1 -16 -10 0 -8 -6 -13 -12 -11 -11 5 -65 12 -106 14 -7 1 -11 5
-7 10 8 13 -23 41 -46 41 -10 0 -19 5 -19 11 0 5 4 8 9 5 4 -3 17 2 27 10 18
15 18 15 1 10 -10 -3 -25 -6 -33 -6 -8 0 -14 -8 -14 -17 0 -11 -3 -14 -8 -7
-5 8 -117 11 -387 11 -367 0 -382 0 -435 21 -30 12 -65 22 -77 22 -13 0 -23 4
-23 9 0 8 -32 24 -51 26 -3 0 -13 8 -23 18 -10 9 -22 17 -27 17 -6 0 -7 5 -4
10 3 6 -1 10 -9 10 -8 0 -20 9 -26 20 -8 15 -17 19 -31 15 -11 -4 -39 -8 -62
-9 -23 -2 -70 -9 -105 -16 -34 -7 -65 -10 -69 -6 -3 3 2 6 12 6 62 0 574 145
825 234 337 119 798 324 1065 473 l103 58 78 205 c78 203 78 206 79 300 0 111
-15 150 -81 217 -86 85 -138 98 -454 113 -124 6 -351 17 -505 25 -154 8 -440
22 -635 30 -195 9 -497 22 -670 30 -173 8 -412 17 -530 20 -118 3 -247 8 -286
11 l-71 5 -27 117 c-15 64 -34 132 -43 149 -19 40 -84 100 -130 119 -33 14
-620 74 -729 74 -35 0 -66 -8 -105 -27z m2038 -2179 c-3 -3 -12 -4 -19 -1 -8
3 -5 6 6 6 11 1 17 -2 13 -5z m1583 -214 c-8 -5 -19 -10 -25 -10 -5 0 -3 5 5
10 8 5 20 10 25 10 6 0 3 -5 -5 -10z m-50 -20 c-20 -13 -33 -13 -25 0 3 6 14
10 23 10 15 0 15 -2 2 -10z m-1884 -485 c148 -44 221 -214 155 -363 -92 -207
-412 -197 -491 15 -39 105 -18 206 61 285 72 72 170 95 275 63z m1402 -19
c112 -57 163 -178 128 -301 -32 -108 -148 -195 -261 -195 -66 0 -136 30 -185
79 -107 107 -107 265 1 373 81 81 208 99 317 44z"/>
</g>
</svg>
