<svg width="32" height="32" viewBox="0 0 32 32" fill="none" xmlns="http://www.w3.org/2000/svg">
<g clip-path="url(#clip0_2671_8427)">
<g clip-path="url(#clip1_2671_8427)">
<path d="M32 0H0V32H32V0Z" fill="#FBFAF6"/>
<path d="M2.50183 14.7462H4.49456C4.85819 12.8635 6.50183 11.3428 8.61092 11.3428C10.9964 11.3428 12.6836 13.0373 12.6836 15.6007C12.6836 15.8759 12.6546 16.0931 12.6255 16.2814H6.19638C6.50183 17.44 7.46183 18.1352 8.61092 18.1352C9.60001 18.1352 10.3418 17.7586 10.9382 17.0779L12.1164 18.1642C11.3309 19.0476 10.1673 19.6704 8.61092 19.6704C6.50183 19.6704 4.85819 18.1786 4.49456 16.2959H2.50183V14.7607V14.7462ZM10.9818 14.7462C10.8946 14.2683 10.6764 13.8338 10.3564 13.5152C9.9491 13.1097 9.33819 12.849 8.61092 12.849C7.88365 12.849 7.28728 13.0952 6.85092 13.5297C6.54547 13.8338 6.29819 14.2393 6.18183 14.7462H10.9818ZM13.8764 11.3862H15.6073V17.9614H18.7346V19.5979H15.6218C14.4873 19.5979 13.8618 18.9752 13.8618 17.8455V11.3862H13.8764ZM19.0691 15.4993C19.0691 13.269 20.9018 11.3428 23.3164 11.3428C25.4546 11.3428 27.1418 12.849 27.4909 14.7462H29.4836V16.2814H27.4909C27.1127 18.1642 25.44 19.6559 23.3164 19.6559C20.8873 19.6559 19.0691 17.7442 19.0691 15.4993ZM23.3164 18.0483C24.7564 18.0483 25.8327 16.9476 25.8327 15.5138C25.8327 14.08 24.7273 12.9504 23.3164 12.9504C21.9055 12.9504 20.8 14.051 20.8 15.4993C20.8 16.9476 21.9055 18.0483 23.3164 18.0483Z" fill="#003933"/>
</g>
</g>
<defs>
<clipPath id="clip0_2671_8427">
<rect width="32" height="32" fill="white"/>
</clipPath>
<clipPath id="clip1_2671_8427">
<rect width="32" height="32" fill="white"/>
</clipPath>
</defs>
</svg>
